<svg width="50" height="50" viewBox="0 0 50 50" fill="none" xmlns="http://www.w3.org/2000/svg">
<path d="M18.517 47.9983C17.5953 47.9986 16.7142 48.0021 15.8332 47.9981C14.8201 47.9934 14.2252 47.4533 14.0893 46.4318C13.638 43.0411 13.1772 39.6517 12.7348 36.2599C12.3632 33.4116 12.0162 30.5601 11.6509 27.7109C11.3118 25.0656 10.9607 22.4218 10.6198 19.7767C10.5219 19.017 10.4385 18.2553 10.3533 17.4939C10.2854 16.8871 10.2887 16.8867 9.70547 16.873C8.6243 16.8478 8.00076 16.2049 8.00023 15.1086C7.99958 13.7779 8.00006 12.4471 8.00496 11.1164C8.01231 9.11915 9.08486 7.51108 10.9141 6.77103C11.1856 6.66119 11.3595 6.49525 11.4781 6.22615C11.9303 5.19925 12.4078 4.18364 12.8559 3.15495C13.203 2.3583 13.7902 2.00112 14.6446 2.00203C21.2186 2.00906 27.7926 2.01138 34.3666 2.00001C35.2735 1.99844 35.8789 2.36009 36.2384 3.21417C36.6629 4.22287 37.1428 5.2076 37.5858 6.20853C37.7037 6.47476 37.8699 6.64584 38.139 6.76535C40.0308 7.60582 41.011 9.0593 40.9999 11.1728C40.993 12.5035 41.0015 13.8342 40.9993 15.165C40.9975 16.2414 40.4048 16.8507 39.3486 16.8698C38.7758 16.8801 38.789 16.8834 38.7155 17.4591C38.4032 19.9026 38.0789 22.3445 37.764 24.7876C37.5069 26.7828 37.2604 28.7794 37.0029 30.7745C36.7173 32.9874 36.424 35.1994 36.135 37.4118C35.8832 39.3394 35.6322 41.2671 35.3819 43.1949C35.2373 44.3079 35.111 45.4237 34.9463 46.5337C34.8049 47.4876 34.1965 47.9922 33.2372 47.9966C32.1529 48.0015 31.0685 47.9978 29.9841 47.9979C26.1753 47.998 22.3665 47.9982 18.517 47.9983ZM29.8691 45.0999C30.4384 45.0992 31.0077 45.0989 31.577 45.0979C32.3292 45.0965 32.3292 45.0963 32.3967 44.3473C32.398 44.3337 32.397 44.3198 32.3988 44.3062C32.6018 42.7328 32.8106 41.1602 33.0054 39.5858C33.0905 38.8978 33.2351 38.2154 33.2458 37.5336C33.1174 37.428 32.9904 37.4539 32.8719 37.4539C27.3146 37.4515 21.7573 37.4532 16.2001 37.445C15.8506 37.4445 15.743 37.573 15.7887 37.9101C16.092 40.1461 16.3932 42.3824 16.6826 44.6203C16.7307 44.9921 16.861 45.2036 17.2669 45.1432C17.3862 45.1255 17.5105 45.1427 17.6325 45.1421C21.6848 45.1229 25.7373 45.1906 29.8691 45.0999ZM13.8397 13.9675C16.8492 13.9681 19.8586 13.9693 22.8681 13.9693C27.789 13.9692 32.7099 13.9689 37.6307 13.9671C38.1767 13.9669 38.1782 13.9622 38.179 13.4265C38.1802 12.6719 38.1836 11.9172 38.1778 11.1626C38.169 10.0252 37.5288 9.36824 36.4142 9.3679C28.4839 9.36553 20.5536 9.36587 12.6232 9.36833C11.5458 9.36867 10.8974 10.0082 10.8768 11.0951C10.8615 11.9044 10.8827 12.7143 10.8664 13.5235C10.8596 13.8633 10.9836 13.9828 11.3184 13.9754C12.1314 13.9574 12.945 13.9682 13.8397 13.9675ZM24.1705 22.1248C27.7084 22.1223 31.2463 22.1146 34.7841 22.1248C35.1732 22.1259 35.2932 21.975 35.3356 21.6072C35.4921 20.2488 35.668 18.8924 35.8555 17.5379C35.9441 16.8982 35.9465 16.8789 35.3242 16.8789C28.2484 16.8785 21.1726 16.8785 14.0969 16.8783C13.8664 16.8783 13.636 16.8796 13.4056 16.8783C13.1866 16.8771 13.0884 16.9546 13.1239 17.2037C13.3322 18.6661 13.554 20.1275 13.7141 21.5956C13.7666 22.0771 13.9777 22.1307 14.3702 22.1294C17.6098 22.1193 20.8495 22.1244 24.1705 22.1248ZM21.6586 26.2498C20.5641 27.1299 19.9749 28.2893 19.9362 29.6904C19.8542 32.6625 22.7261 34.9553 25.5874 34.2365C28.0656 33.614 29.5835 31.1733 29.01 28.7737C28.3012 25.808 24.6682 23.9794 21.6586 26.2498ZM31.8983 4.86796C31.2345 4.88014 30.5707 4.90231 29.9069 4.90285C25.8403 4.9061 21.7737 4.91097 17.7071 4.89849C16.9624 4.8962 16.2176 4.84795 15.4727 4.88996C15.3575 4.89645 15.2065 4.8558 15.145 4.99759C14.9468 5.45483 14.7174 5.90114 14.573 6.41684C21.2425 6.41684 27.8576 6.41684 34.5412 6.41684C34.3416 5.96004 34.1617 5.56605 33.9975 5.16548C33.9064 4.94316 33.7588 4.86003 33.5249 4.86489C33.01 4.8756 32.4948 4.86811 31.8983 4.86796Z" fill="#5E2714"/>
</svg>
