<svg width="126" height="126" viewBox="0 0 126 126" fill="none" xmlns="http://www.w3.org/2000/svg">
<path d="M9.45 53.7466C9.25313 53.7466 9.05625 53.5497 9.25312 53.3528L10.6313 51.7778C10.8281 51.5809 11.025 51.3841 11.2219 51.3841H33.075C33.2719 51.3841 33.4687 51.5809 33.2719 51.7778L32.2875 53.3528C32.0906 53.5497 31.8938 53.7466 31.6969 53.7466H9.45ZM0.196875 59.4559C0 59.4559 0 59.2591 0 59.0622L1.37812 57.4872C1.37812 57.2903 1.77187 57.0934 1.96875 57.0934H29.925C30.1219 57.0934 30.3187 57.2903 30.3187 57.4872L29.925 58.8653C29.925 59.0622 29.5312 59.2591 29.3344 59.2591L0.196875 59.4559ZM15.1594 64.9684C14.9625 64.9684 14.7656 64.7716 14.9625 64.5747L15.75 63.1966C15.9469 62.9997 16.1438 62.8028 16.3406 62.8028H28.5469C28.7438 62.8028 28.9406 62.9997 28.9406 63.1966L28.7438 64.5747C28.7438 64.7716 28.5469 64.9684 28.35 64.9684H15.1594ZM78.75 52.5653L68.5125 55.3216C67.5281 55.5184 67.5281 55.7153 66.7406 54.7309C65.7563 53.7466 65.1656 52.9591 63.7875 52.3684C59.85 50.3997 56.1094 50.9903 52.7625 53.3528C48.6281 56.1091 46.4625 60.0466 46.4625 64.9684C46.4625 69.8903 49.8094 73.8278 54.7312 74.6153C58.8656 75.2059 62.4094 73.6309 65.1656 70.4809C65.7562 69.8903 66.15 69.1028 66.7406 68.1184H54.9281C53.55 68.1184 53.3531 67.3309 53.7469 66.3466C54.5344 64.3778 56.1094 61.2278 56.8969 59.6528C57.0937 59.2591 57.4875 58.6684 58.4719 58.6684H80.7188C80.5219 60.2434 80.5219 62.0153 80.325 63.5903C79.7344 67.9216 77.9625 72.0559 75.2063 75.5997C70.875 81.5059 64.9687 85.0497 57.6844 86.0341C51.5812 86.8216 46.0687 85.6403 41.1469 81.8997C36.6187 78.5528 34.0594 73.8278 33.2719 68.3153C32.4844 61.6216 34.4531 55.7153 38.3906 50.3997C42.7219 44.6903 48.4313 41.1466 55.5188 39.7684C61.2281 38.7841 66.7406 39.3747 71.8594 42.7216C75.2063 44.8872 77.3719 47.8403 78.9469 51.3841C79.7344 52.1716 79.5375 52.3684 78.75 52.5653Z" fill="#00ACD7"/>
<path d="M99.0285 86.6251C93.516 86.4282 88.3972 84.8532 84.066 81.3095C80.5222 78.1595 78.1597 74.222 77.3722 69.497C76.191 62.6063 78.1597 56.5032 82.2941 50.9907C86.8222 45.0845 92.1378 42.1313 99.4222 40.7532C105.722 39.572 111.628 40.3595 116.944 43.9032C121.866 47.2501 124.819 51.7782 125.607 57.4876C126.591 65.7563 124.228 72.4501 118.519 78.3563C114.385 82.4907 109.463 85.0501 103.753 86.2313C102.375 86.2313 100.603 86.4282 99.0285 86.6251ZM113.597 61.8188C113.597 61.0313 113.597 60.4407 113.4 59.8501C112.219 53.747 106.707 50.4001 100.8 51.7782C95.091 53.1563 91.3503 56.7001 89.9722 62.4095C88.791 67.1345 91.1535 72.0563 95.6816 74.0251C99.0285 75.4032 102.375 75.4032 105.722 73.6313C110.644 70.8751 113.4 66.9376 113.597 61.8188Z" fill="#00ACD7"/>
</svg>
